Coordinates
version=1
nRows=23
nColumns=38
inDegrees=no

Units are S.I. units (second, meters, Newtons, ...)
If the header above contains a line with 'inDegrees', this indicates whether rotational values are in degrees (yes) or radians (no).

endheader
time	pelvis_tilt	pelvis_list	pelvis_rotation	pelvis_tx	pelvis_ty	pelvis_tz	hip_flexion_r	hip_adduction_r	hip_rotation_r	knee_angle_r	ankle_angle_r	subtalar_angle_r	mtp_angle_r	hip_flexion_l	hip_adduction_l	hip_rotation_l	knee_angle_l	ankle_angle_l	subtalar_angle_l	mtp_angle_l	lumbar_extension	lumbar_bending	lumbar_rotation	arm_flex_r	arm_add_r	arm_rot_r	elbow_flex_r	pro_sup_r	wrist_flex_r	wrist_dev_r	arm_flex_l	arm_add_l	arm_rot_l	elbow_flex_l	pro_sup_l	wrist_flex_l	wrist_dev_l
20	0.138119	1.56011	1.64064	0.546717	0.247233	0.936833	-0.0604696	-0.0325108	-0.122037	0.00318995	-0.0136193	0	0	-0.0752749	-0.0121681	-0.214157	0	-0.00646407	0	0	-0.171557	0.0452876	-0.0914074	0.139232	-0.256979	0.626887	0.392069	1.1089	0	0	0.0903636	-0.306143	0.57788	0.737674	1.0821	0	0
20.01	0.122724	1.56192	1.65598	0.546526	0.246735	0.936994	-0.0566658	-0.0335046	-0.125414	0.0130057	-0.00933182	0	0	-0.0757613	-0.0117423	-0.21368	0	-0.00569505	0	0	-0.176508	0.0469803	-0.091255	0.142408	-0.256176	0.622203	0.388041	1.10988	0	0	0.0913952	-0.305903	0.577009	0.741082	1.08169	0	0
20.02	0.073797	1.56363	1.70459	0.546336	0.24609	0.93718	-0.0522364	-0.034906	-0.128473	0.0236386	-0.00499395	0	0	-0.0761244	-0.0111372	-0.213377	0	-0.00435025	0	0	-0.181602	0.0485094	-0.0910593	0.145913	-0.25519	0.61672	0.383542	1.11033	0	0	0.0923139	-0.305728	0.576259	0.744021	1.08178	0	0
20.03	-0.0506401	1.5654	1.82857	0.546234	0.245372	0.937381	-0.0476175	-0.0366015	-0.131443	0.034865	-0.000363543	0	0	-0.07656	-0.0102759	-0.213013	0	-0.00272154	0	0	-0.187087	0.0497488	-0.0907655	0.149615	-0.25414	0.610912	0.378877	1.11028	0	0	0.0932877	-0.305718	0.575237	0.747223	1.0818	0	0
20.04	-0.0709322	1.56549	1.8477	0.546044	0.244978	0.937324	-0.0409841	-0.0377463	-0.134428	0.0468889	0.00501776	0	0	-0.0842745	-0.0076091	-0.211374	0	-0.00249127	0	0	-0.190297	0.0513141	-0.0903946	0.153139	-0.253035	0.604566	0.373644	1.10938	0	0	0.0934504	-0.305757	0.573901	0.750394	1.08181	0	0
20.05	-0.535949	1.56766	2.31274	0.546018	0.244125	0.93758	-0.0369182	-0.0396318	-0.138346	0.0595052	0.011139	0	0	-0.0803205	-0.00782929	-0.21194	0	0.00133729	0	0	-0.197303	0.0520432	-0.0905768	0.15755	-0.251661	0.599174	0.368598	1.10826	0	0	0.0944805	-0.306252	0.571907	0.754303	1.08132	0	0
20.06	-1.64814	1.56801	-2.85817	0.546034	0.243221	0.937822	-0.0333626	-0.0413079	-0.140463	0.0711621	0.0157997	0	0	-0.0757718	-0.00850617	-0.213509	0.00286917	0.00627063	0	0	-0.204862	0.0527816	-0.0908253	0.161972	-0.250634	0.595177	0.364565	1.1076	0	0	0.0956397	-0.306981	0.570167	0.757998	1.0808	0	0
20.07	-2.19828	1.56638	-2.30746	0.546105	0.242181	0.937959	-0.0281871	-0.0427635	-0.143541	0.0842235	0.0208989	0	0	-0.0662134	-0.010733	-0.222664	0.0250969	0.0176066	0	0	-0.212129	0.0536636	-0.0916043	0.167133	-0.24805	0.58639	0.357886	1.11039	0	0	0.0967361	-0.308089	0.567783	0.762395	1.07808	0	0
20.08	0	1.5708	1.78094	0.546383	0.240685	0.937413	-0.0166275	-0.0396209	-0.147681	0.0990385	0.0258258	0	0	-0.0119011	-0.0332052	-0.303046	0.133583	0.0802593	0	0	-0.214846	0.058319	-0.094207	0.172584	-0.243991	0.571933	0.349537	1.11886	0	0	0.0984047	-0.310422	0.567836	0.767291	1.0695	0	0
20.09	2.95927	1.56648	-1.17759	0.546469	0.239662	0.937429	-0.0123057	-0.0393913	-0.149239	0.111564	0.0300857	0	0	-0.00439089	-0.0373745	-0.305498	0.152588	0.087455	0	0	-0.22286	0.0607561	-0.0951386	0.177776	-0.243366	0.571422	0.34628	1.11315	0	0	0.0992113	-0.311262	0.564416	0.770964	1.07199	0	0
20.1	2.84836	1.5636	-1.06564	0.546585	0.238589	0.937304	-0.00658749	-0.0385678	-0.15236	0.125706	0.0355658	0	0	0.00588839	-0.0432309	-0.310282	0.176121	0.0973234	0	0	-0.230204	0.0638524	-0.0963372	0.183383	-0.242092	0.568898	0.341816	1.10696	0	0	0.0997548	-0.312086	0.560446	0.774806	1.07367	0	0
20.11	2.7499	1.56071	-0.966163	0.546737	0.23748	0.937084	-0.000176372	-0.0373166	-0.155471	0.140123	0.0407996	0	0	0.0173961	-0.0498871	-0.314931	0.201395	0.107591	0	0	-0.237273	0.0673312	-0.0973922	0.189182	-0.240616	0.565225	0.337072	1.10077	0	0	0.100461	-0.312817	0.556625	0.778188	1.07462	0	0
20.12	2.67615	1.55766	-0.8915	0.546918	0.236384	0.936781	0.00644647	-0.0357261	-0.158046	0.154589	0.0458889	0	0	0.0291539	-0.0568425	-0.3184	0.226997	0.117701	0	0	-0.244227	0.0709899	-0.0980366	0.194781	-0.239246	0.560969	0.332712	1.09485	0	0	0.101381	-0.313516	0.553206	0.781328	1.07484	0	0
20.13	2.61201	1.5547	-0.826834	0.547142	0.235291	0.936378	0.0137847	-0.0340749	-0.160526	0.169669	0.0512412	0	0	0.0408959	-0.0637416	-0.320547	0.251925	0.12735	0	0	-0.250903	0.0747064	-0.0982614	0.200259	-0.23798	0.557231	0.32852	1.09012	0	0	0.102336	-0.314257	0.550064	0.78445	1.07447	0	0
20.14	2.5607	1.55192	-0.775543	0.547438	0.234173	0.935912	0.0217496	-0.0327127	-0.163523	0.185339	0.0570411	0	0	0.0521525	-0.070239	-0.32145	0.275294	0.136093	0	0	-0.257536	0.078252	-0.0977418	0.205754	-0.236996	0.554313	0.324517	1.08636	0	0	0.103731	-0.315007	0.54813	0.786543	1.0741	0	0
20.15	2.548	1.54925	-0.762579	0.547711	0.23325	0.935382	0.0285352	-0.0316703	-0.165348	0.200224	0.0633562	0	0	0.0619013	-0.0758682	-0.321153	0.296624	0.144198	0	0	-0.263863	0.0811586	-0.0975419	0.210647	-0.235876	0.55183	0.320552	1.08342	0	0	0.104762	-0.316018	0.546776	0.788304	1.07352	0	0
20.16	2.56953	1.54631	-0.784087	0.548024	0.232365	0.934816	0.0346754	-0.030831	-0.165425	0.215566	0.0701185	0	0	0.0700301	-0.0808966	-0.320403	0.316403	0.151828	0	0	-0.270941	0.0835183	-0.097088	0.21556	-0.234753	0.550168	0.316768	1.08136	0	0	0.105959	-0.317329	0.545803	0.790245	1.07242	0	0
20.17	2.58411	1.54315	-0.798913	0.548382	0.231461	0.934194	0.040092	-0.0296811	-0.165355	0.229544	0.0764841	0	0	0.0776126	-0.0860488	-0.319425	0.33533	0.15924	0	0	-0.278331	0.0860369	-0.0963494	0.220711	-0.233809	0.549414	0.313283	1.08012	0	0	0.107265	-0.318684	0.54484	0.792451	1.0709	0	0
20.18	2.59583	1.53988	-0.811081	0.548778	0.230526	0.93353	0.0453215	-0.0284929	-0.165096	0.243069	0.0826546	0	0	0.0848444	-0.0911399	-0.318094	0.353627	0.166401	0	0	-0.285979	0.0885783	-0.0952895	0.225993	-0.232981	0.549061	0.31007	1.0792	0	0	0.108837	-0.319978	0.543953	0.794493	1.06925	0	0
20.19	2.60765	1.53654	-0.82354	0.54922	0.229568	0.932818	0.0506538	-0.0273749	-0.164559	0.256991	0.089085	0	0	0.0919997	-0.0961647	-0.316379	0.371961	0.17358	0	0	-0.293938	0.0910691	-0.093762	0.231285	-0.232319	0.549032	0.307155	1.07819	0	0	0.110877	-0.321251	0.544056	0.795654	1.06799	0	0
20.2	2.61131	1.5335	-0.827723	0.549679	0.228567	0.931992	0.0567828	-0.0263672	-0.164733	0.271625	0.0959655	0	0	0.0999462	-0.101312	-0.314694	0.390954	0.181068	0	0	-0.301654	0.0935337	-0.0921077	0.236519	-0.23178	0.549863	0.304524	1.07729	0	0	0.113369	-0.322482	0.545013	0.795909	1.06712	0	0
20.21	2.61878	1.53037	-0.836024	0.550153	0.227525	0.931123	0.0631891	-0.0256017	-0.16522	0.286982	0.102781	0	0	0.107498	-0.106153	-0.312231	0.409351	0.187956	0	0	-0.309747	0.0958902	-0.0901054	0.241727	-0.231439	0.550702	0.302684	1.07687	0	0	0.116018	-0.32349	0.545433	0.79625	1.06673	0	0
20.22	2.63259	1.52695	-0.850035	0.550543	0.226502	0.930225	0.0691112	-0.024947	-0.165403	0.302573	0.109793	0	0	0.114659	-0.110716	-0.308859	0.427741	0.194971	0	0	-0.318171	0.0984324	-0.0888324	0.247178	-0.230915	0.551357	0.300509	1.07686	0	0	0.118523	-0.324426	0.545744	0.795854	1.06725	0	0
